# xmcd
#
# Track frame offsets: 
#        150
#        15845
#        27735
#        42132
#        54575
#        67135
#        79305
#        89752
#        110182
#        122685
#        137085
#        149400
#        160462
#        171820
#        185075
#
# Disc length: 2621 seconds
#
# Revision: 3
# Processed by: cddbd v1.5.2PL0 Copyright (c) Steve Scherf et al.
# Submitted via: ExactAudioCopy v1.0b4
#
DISCID=e10a3b0f
DTITLE=Various Artist - Living the Blues-Blues Classics 1957-1959 CD1
DYEAR=1997
DGENRE=Blues
TTITLE0=Ray Charles - Night Time is the Right Time
TTITLE1=Otis Rush - All Your Love
TTITLE2=Muddy Waters - Rock Me
TTITLE3=Little Walter - Key to the Highway
TTITLE4=Jimmy McCracklin - The Walk
TTITLE5=Johnny Guitar Watson - Gangster of Love
TTITLE6=Bobby Bland - I'll Take Care Of You
TTITLE7=Big Maybelle - Blues Early Early
TTITLE8=Jimmy Reed - Honest I Do
TTITLE9=Ray Charles - What'd I Say
TTITLE10=Ivory Joe Hunter - Empty Arms
TTITLE11=Bo Diddley - I'm Sorry
TTITLE12=Bill Doggert - Ram Bunk Shush
TTITLE13=Eugene Church - Pretty Girls Everywhere
TTITLE14=Otis Williams and His Charms - United
EXTD=
EXTT0=
EXTT1=
EXTT2=
EXTT3=
EXTT4=
EXTT5=
EXTT6=
EXTT7=
EXTT8=
EXTT9=
EXTT10=
EXTT11=
EXTT12=
EXTT13=
EXTT14=
PLAYORDER=
